<svg xmlns="http://www.w3.org/2000/svg" viewBox="0 0 64 64" fill="none" role="img" aria-label="Foxstream">
  <defs>
    <linearGradient id="fx" x1="12" y1="8" x2="52" y2="56" gradientUnits="userSpaceOnUse">
      <stop stop-color="#FFB020"/>
      <stop offset="0.45" stop-color="#FF6B00"/>
      <stop offset="1" stop-color="#E84800"/>
    </linearGradient>
    <linearGradient id="fxSoft" x1="20" y1="16" x2="48" y2="48" gradientUnits="userSpaceOnUse">
      <stop stop-color="#FFC14D"/>
      <stop offset="1" stop-color="#FF6B00"/>
    </linearGradient>
  </defs>
  <!-- Outer ring / tail arc -->
  <path
    fill="url(#fx)"
    d="M32 4c15.46 0 28 12.54 28 28 0 11.2-6.58 20.9-16.12 25.4-1.3.61-2.68-.63-2.2-1.98A23.9 23.9 0 0 0 56 32c0-13.25-10.75-24-24-24S8 18.75 8 32c0 8.9 4.85 16.65 12.05 20.78.95.55.78 1.98-.28 2.28C11.3 52.1 4 42.9 4 32 4 16.54 16.54 4 32 4Z"
  />
  <!-- Fox head -->
  <path
    fill="url(#fxSoft)"
    d="M32 14.5c.7 0 1.35.28 1.85.78l8.4 8.55c1.55 1.58.58 4.27-1.6 4.55l-3.35.42 2.9 7.85c.72 1.95-1.55 3.7-3.3 2.55L32 35.4l-5.9 3.8c-1.75 1.15-4.02-.6-3.3-2.55l2.9-7.85-3.35-.42c-2.18-.28-3.15-2.97-1.6-4.55l8.4-8.55c.5-.5 1.15-.78 1.85-.78Z"
  />
  <!-- Ears tips -->
  <path fill="#FF6B00" d="M21.2 17.2 26.8 22l-3.1 1.1c-1.55.55-3.15-.95-2.5-2.45l.9-2.45c.2-.55.75-.9 1.35-.9.25 0 .5.07.75.2Z"/>
  <path fill="#FFB020" d="M42.8 17.2 37.2 22l3.1 1.1c1.55.55 3.15-.95 2.5-2.45l-.9-2.45c-.2-.55-.75-.9-1.35-.9-.25 0-.5.07-.75.2Z"/>
  <!-- Eyes -->
  <ellipse cx="27.2" cy="28.4" rx="1.55" ry="2.1" fill="#0A0A0A"/>
  <ellipse cx="36.8" cy="28.4" rx="1.55" ry="2.1" fill="#0A0A0A"/>
  <!-- Nose -->
  <circle cx="32" cy="33.2" r="1.35" fill="#0A0A0A"/>
  <!-- Tail flame tip -->
  <path
    fill="url(#fx)"
    d="M44.5 48.2c2.4-1.1 5.4-3.4 7.2-6.5-2.9 1.2-5.7 1.5-8.2.7 1.6 1.9 1.8 4.1 1 5.8Z"
  />
</svg>
